<?xml version="1.0" encoding="UTF-8" standalone="no"?>
<!-- Generator: Adobe Illustrator 13.0.1, SVG Export Plug-In . SVG Version: 6.00 Build 14948)  -->

<svg
   xmlns:dc="http://purl.org/dc/elements/1.1/"
   xmlns:cc="http://creativecommons.org/ns#"
   xmlns:rdf="http://www.w3.org/1999/02/22-rdf-syntax-ns#"
   xmlns:svg="http://www.w3.org/2000/svg"
   xmlns="http://www.w3.org/2000/svg"
   xmlns:sodipodi="http://sodipodi.sourceforge.net/DTD/sodipodi-0.dtd"
   xmlns:inkscape="http://www.inkscape.org/namespaces/inkscape"
   version="1.1"
   id="Layer_1"
   x="0px"
   y="0px"
   width="250.25px"
   height="59px"
   viewBox="0 0 250.25 59"
   enable-background="new 0 0 250.25 59"
   xml:space="preserve"
   inkscape:version="0.91 r13725"
   sodipodi:docname="Mcranl_Wordmark.svg"><metadata
     id="metadata3431"><rdf:RDF><cc:Work
         rdf:about=""><dc:format>image/svg+xml</dc:format><dc:type
           rdf:resource="http://purl.org/dc/dcmitype/StillImage" /><dc:title></dc:title></cc:Work></rdf:RDF></metadata><defs
     id="defs3429" /><sodipodi:namedview
     pagecolor="#ffffff"
     bordercolor="#666666"
     borderopacity="1"
     objecttolerance="10"
     gridtolerance="10"
     guidetolerance="10"
     inkscape:pageopacity="0"
     inkscape:pageshadow="2"
     inkscape:window-width="1920"
     inkscape:window-height="1018"
     id="namedview3427"
     showgrid="false"
     inkscape:zoom="1.3986014"
     inkscape:cx="-36.465"
     inkscape:cy="29.5"
     inkscape:window-x="-8"
     inkscape:window-y="-8"
     inkscape:window-maximized="1"
     inkscape:current-layer="Layer_1" /><rect
     x="54.46"
     y="-140.11"
     fill-rule="evenodd"
     clip-rule="evenodd"
     fill="none"
     width="198.21"
     height="60.31"
     id="rect3373" /><rect
     x="-331"
     y="-189.75"
     fill="none"
     width="612"
     height="792"
     id="rect3375" /><rect
     x="-2.5"
     y="0.35"
     fill-rule="evenodd"
     clip-rule="evenodd"
     fill="none"
     width="260.52"
     height="83.73"
     id="rect3377" /><g
     id="g3379"><rect
       x="-331"
       y="-189.75"
       fill="none"
       width="612"
       height="792"
       id="rect3381" /><g
       id="g3383"><rect
         x="-330.95"
         y="-189.75"
         fill="none"
         width="612"
         height="792"
         id="rect3385" /><path
         fill-rule="evenodd"
         clip-rule="evenodd"
         fill="#EF3E33"
         d="M2.653,27.365C0.57,19.945,1.788,13.079,1.788,4.776    c7.426-3.692,14.779-4.027,22.747-4.027c6.89,0,16.661,0.89,22.546,4.015c0.603,7.828,0.95,14.718-1.06,23.612    c-2.011,8.894-7.858,21.181-21.193,30.258C10.274,49.094,5.517,37.562,2.653,27.365"
         id="path3387" /><path
         fill-rule="evenodd"
         clip-rule="evenodd"
         fill="#FFFFFF"
         d="M9.602,16.493l-7.17,7.798    c1.609,7.474,6.074,23.143,22.34,33.712C40.89,46.91,45.209,31.705,46.184,24.12l-6.969-7.645l-7.719,7.822l-7.109-7.755    l-7.085,7.657L9.602,16.493"
         id="path3389" /><path
         fill-rule="evenodd"
         clip-rule="evenodd"
         fill="#FFFFFF"
         d="M37.807,10.482l-0.656,0.767l1.277-0.183L37.807,10.482     M39.815,9.606l0.803,1.46h-1.57L39.815,9.606z M41.86,10.482l0.656,0.767l-1.277-0.183L41.86,10.482z M43.357,8.584    c-0.073,0-0.257-0.073,0-0.147c0.146,0,0.511,0,0.911,0.512c0.184-0.073,0.585-0.731,1.023-0.512c0,0.037-1.424,3.177-1.57,3.433    c-0.621-0.329-4.271-0.548-3.906-0.548c0.292,0-3.323,0.11-3.87,0.548c-0.184-0.329-1.607-3.505-1.607-3.505    c0.438-0.183,0.913,0.438,1.06,0.511c0.364-0.511,0.729-0.511,0.803-0.511c0.365,0.072,0.146,0.146,0.109,0.219    c-1.753,1.424,0.804,3.03,1.352,1.424c2.263,0.255,1.643-1.571,1.095-1.826c-0.438-0.109-0.146-0.183,0-0.183    c0.184-0.109,0.476-0.109,0.476,0.074c0-0.986,0.072-1.645,0.584-1.937c0.548,0.365,0.62,0.95,0.548,1.937    c0.072-0.183,0.328-0.074,0.547-0.074c0.073,0.074,0.438,0.074,0.073,0.219c-0.62,0.219-1.168,2.155,1.059,1.79    C42.553,11.614,45.255,9.825,43.357,8.584z"
         id="path3391" /><path
         fill-rule="evenodd"
         clip-rule="evenodd"
         fill="#FFFFFF"
         d="M37.117,12.41c0.219,0,0.438,0.219,0.438,0.401    c0,0.219-0.219,0.438-0.438,0.438c-0.183,0-0.401-0.219-0.401-0.438C36.716,12.629,36.935,12.41,37.117,12.41 M38.432,12.118    c0.22,0,0.438,0.219,0.438,0.401c0,0.219-0.219,0.438-0.438,0.438c-0.183,0-0.401-0.219-0.401-0.438    C38.03,12.337,38.249,12.118,38.432,12.118z M39.856,12.008c0.219,0,0.438,0.219,0.438,0.402c0,0.219-0.219,0.438-0.438,0.438    c-0.184,0-0.402-0.219-0.402-0.438C39.454,12.227,39.673,12.008,39.856,12.008z M41.28,12.118c0.219,0,0.438,0.219,0.438,0.401    c0,0.219-0.219,0.438-0.438,0.438c-0.184,0-0.402-0.219-0.402-0.438C40.878,12.337,41.097,12.118,41.28,12.118z M42.631,12.41    c0.219,0,0.438,0.219,0.438,0.401c0,0.219-0.22,0.438-0.438,0.438c-0.183,0-0.402-0.219-0.402-0.438    C42.229,12.629,42.448,12.41,42.631,12.41z M36.898,13.651c-0.256-0.438-0.548-1.205-0.694-1.388    c0.621-0.474,2.921-0.547,3.761-0.547c1.242,0,2.958,0.182,3.505,0.547c0,0-0.255,0.913-0.474,1.461    c-0.986-0.365-2.301-0.511-3.177-0.511C38.833,13.213,37.665,13.359,36.898,13.651z"
         id="path3393" /><path
         fill-rule="evenodd"
         clip-rule="evenodd"
         fill="#FFFFFF"
         d="M39.813,13.506c1.606,0,3.095,0.298,3.095,0.476    c0,0.179-1.31,0.298-2.977,0.298c-1.606,0-2.976-0.119-2.976-0.298C36.955,13.804,38.205,13.506,39.813,13.506"
         id="path3395" /><path
         fill-rule="evenodd"
         clip-rule="evenodd"
         fill="#FFFFFF"
         d="M20.81,6.347h0.243V5.13H20.81V6.347z M22.179,5.952    L22.179,5.952L21.692,5.1h-0.273v1.217h0.243V5.465l0.487,0.852h0.273V5.1h-0.244V5.952z M19.806,8.964h0.548    c0.427,0,0.518-0.396,0.518-0.639c0-0.244-0.091-0.609-0.487-0.609h-0.578V8.964z M20.08,7.929h0.244    c0.121,0,0.304,0.031,0.304,0.396c0,0.213-0.092,0.426-0.304,0.426H20.08V7.929z M21.023,8.203c0,0.609,0.426,0.669,0.608,0.669    c0.152,0,0.608-0.06,0.608-0.669c0-0.578-0.456-0.639-0.608-0.639C21.449,7.564,21.023,7.625,21.023,8.203z M21.297,8.203    c0-0.335,0.182-0.426,0.335-0.426c0.121,0,0.334,0.091,0.334,0.426c0,0.365-0.213,0.456-0.334,0.456    C21.479,8.659,21.297,8.568,21.297,8.203z M23.639,7.473h-0.395l-0.213,0.974l-0.213-0.974h-0.396V8.72h0.243V7.686l0.243,1.034    h0.244l0.243-1.034V8.72h0.242V7.473z M20.415,11.61h0.243v-1.247h-0.243V11.61z M21.723,11.124L21.723,11.124l-0.486-0.883    h-0.305v1.278h0.274v-0.913l0.486,0.913h0.273v-1.278h-0.243V11.124z M22.24,10.819c0,0.609,0.426,0.67,0.607,0.67    c0.153,0,0.579-0.061,0.579-0.67c0-0.578-0.426-0.639-0.579-0.639C22.666,10.18,22.24,10.241,22.24,10.819z M22.483,10.819    c0-0.334,0.213-0.426,0.364-0.426c0.122,0,0.335,0.092,0.335,0.426c0,0.365-0.213,0.457-0.335,0.457    C22.696,11.276,22.483,11.184,22.483,10.819z M19.411,3.914c0,0,1.095,0.456,2.008,0.091c1.095-0.456,2.129-0.73,2.92-0.365v9.339    c-0.669-0.243-1.551-0.152-2.555,0.091c-1.004,0.244-1.582,0.274-2.373,0.122V3.914z"
         id="path3397" /><polyline
         fill-rule="evenodd"
         clip-rule="evenodd"
         fill="#FFFFFF"
         points="19.089,3.921 18.207,4.621 18.207,13.991     19.089,13.169 19.089,3.921   "
         id="polyline3399" /><path
         fill-rule="evenodd"
         clip-rule="evenodd"
         fill="#FFFFFF"
         d="M18.481,14.143l0.882-0.7c0.639,0.183,2.008-0.091,2.646-0.183    c1.064-0.152,1.521-0.365,2.281,0c-0.426,0.183-0.699,0.548-0.699,0.883H18.481"
         id="path3401" /><path
         fill-rule="evenodd"
         clip-rule="evenodd"
         fill="#FFFFFF"
         d="M30.375,14.143l-0.851-0.7c-0.73,0.183-1.979-0.091-2.647-0.183    c-1.156-0.152-1.521-0.365-2.189,0c0.334,0.183,0.577,0.548,0.517,0.883H30.375"
         id="path3403" /><polyline
         fill-rule="evenodd"
         clip-rule="evenodd"
         fill="#FFFFFF"
         points="29.767,3.83 30.589,4.621 30.589,13.899 29.767,13.108     29.767,3.83   "
         id="polyline3405" /><path
         fill-rule="evenodd"
         clip-rule="evenodd"
         fill="#FFFFFF"
         d="M28.534,6.165L28.534,6.165l-0.487-0.882h-0.273V6.53h0.242    V5.648l0.519,0.882h0.272V5.283h-0.272V6.165 M26.648,5.891c0-0.335,0.182-0.426,0.334-0.426c0.121,0,0.335,0.091,0.335,0.426    c0,0.365-0.214,0.456-0.335,0.456C26.83,6.347,26.648,6.256,26.648,5.891z M26.374,5.891c0,0.608,0.426,0.669,0.608,0.669    c0.151,0,0.607-0.061,0.607-0.669c0-0.578-0.456-0.639-0.607-0.639C26.8,5.252,26.374,5.313,26.374,5.891z M26.161,5.526    C26.13,5.343,25.979,5.1,25.613,5.1c-0.334,0-0.578,0.213-0.578,0.639c0,0.456,0.244,0.669,0.578,0.669    c0.304,0,0.486-0.182,0.548-0.456h-0.274c-0.029,0.152-0.122,0.243-0.273,0.243c-0.243,0-0.305-0.213-0.305-0.456    c0-0.335,0.184-0.426,0.305-0.426c0.213,0,0.244,0.152,0.273,0.213H26.161z M27.317,9.024h0.273V7.777h-0.273V9.024z     M26.374,8.477h0.547V8.234h-0.547V7.96h0.639V7.747H26.1v1.247h0.274V8.477z M27.347,11.002c0-0.335,0.184-0.426,0.335-0.426    c0.121,0,0.334,0.091,0.334,0.426c0,0.365-0.213,0.456-0.334,0.456C27.53,11.458,27.347,11.367,27.347,11.002z M27.073,11.002    c0,0.608,0.426,0.669,0.608,0.669c0.152,0,0.608-0.061,0.608-0.669c0-0.578-0.456-0.639-0.608-0.639    C27.499,10.363,27.073,10.424,27.073,11.002z M25.948,10.424h0.243c0.122,0,0.273,0.03,0.273,0.395    c0,0.213-0.061,0.426-0.273,0.426h-0.243V10.424z M25.674,11.458h0.548c0.427,0,0.518-0.395,0.518-0.669    c0-0.243-0.091-0.578-0.518-0.578h-0.548V11.458z M29.446,3.914c0,0-1.096,0.456-2.007,0.091c-1.157-0.456-2.101-0.73-2.77-0.365    v9.339c0.578-0.243,1.339-0.152,2.373,0.091c1.034,0.244,1.582,0.274,2.403,0.122V3.914z"
         id="path3407" /><path
         fill-rule="evenodd"
         clip-rule="evenodd"
         fill="#FFFFFF"
         d="M24.474,13.443c-0.335,0.365-0.517,0.365-0.426,0.7h0.76    C24.9,13.808,24.808,13.626,24.474,13.443"
         id="path3409" /><path
         fill-rule="evenodd"
         clip-rule="evenodd"
         fill="#EF3E33"
         d="M10.379,27.302c0.138,0,0.236,0.109,0.236,0.236    c0,0.138-0.099,0.246-0.236,0.246c-0.146,0-0.255-0.108-0.255-0.246C10.124,27.411,10.232,27.302,10.379,27.302 M8.63,30.791    c0.108-0.256,0.354-0.983,0.492-1.239c-0.138-0.235-0.384-0.481-0.59-0.481c0.098-0.236,0.511-0.55,0.452-0.756    c-0.118-0.207-0.275-0.177-0.698-0.413c0.138-0.285,0.452-0.462,0.659-0.491c0.245-0.049,0.245-0.384,0.619-0.59    c0.432-0.206,0.874-0.206,1.365-0.255c0.668,0.078,2.467,0.56,1.984,2.751c1.081,2.191,4.893-0.727,6.229-0.727    c-0.256,0.481-0.59,0.962-0.845,1.454c0.354,0.255,0.845,0,1.229,0c-0.384,1.218-1.12,1.7-1.721,2.191    c0.601,1.955,2.86,1.189,4.874,0.982c-0.235,0.659-1.061,0.718-1.443,1.209c0.687,0.747,1.443,1.71,1.935,2.683    c-0.904-0.59-2.78-1.219-3.409-1.455c-1.209-0.481-3.685-0.481-4.893,0c0.235,0.482,0.717,0.727,1.11,0.963    c-0.63,1.228-1.857,0.492-2.584,0.256c-0.619,0.491-1.77,0.52-2.083,0.236c0,0,0-0.315,0.383-0.551    c0.235-0.353-0.737-0.422-1.002-0.904c0-0.452,0.48,0,0.746-0.481C10.822,33.935,8.286,33.699,8.63,30.791z"
         id="path3411" /><path
         fill-rule="evenodd"
         clip-rule="evenodd"
         fill="#EF3E33"
         d="M27.678,27.66c0.148,0,0.246,0.108,0.246,0.256    c0,0.127-0.098,0.235-0.246,0.235c-0.137,0-0.245-0.108-0.245-0.235C27.433,27.768,27.541,27.66,27.678,27.66 M25.969,31.138    c0.108-0.236,0.345-0.972,0.491-1.208c-0.146-0.256-0.383-0.492-0.59-0.492c0.099-0.255,0.511-0.56,0.443-0.776    c-0.108-0.206-0.267-0.177-0.698-0.412c0.146-0.276,0.462-0.452,0.668-0.482c0.256-0.029,0.256-0.393,0.619-0.599    c0.432-0.207,0.874-0.207,1.365-0.236c0.668,0.059,2.477,0.55,1.985,2.741c1.08,2.191,4.903-0.727,6.229-0.727    c-0.246,0.491-0.59,0.983-0.846,1.464c0.364,0.236,0.846,0,1.229,0c-0.383,1.219-1.12,1.71-1.709,2.191    c0.589,1.946,2.849,1.189,4.862,0.983c-0.234,0.648-1.061,0.727-1.443,1.209c0.698,0.727,1.443,1.709,1.936,2.682    c-0.903-0.59-2.78-1.228-3.399-1.464c-1.219-0.491-3.694-0.491-4.903,0c0.236,0.491,0.727,0.727,1.11,0.973    c-0.629,1.218-1.857,0.491-2.574,0.245c-0.629,0.482-1.779,0.531-2.093,0.246c0,0,0-0.305,0.383-0.56    c0.235-0.344-0.737-0.413-1.002-0.904c0-0.462,0.48,0,0.757-0.491C28.16,34.312,25.615,34.057,25.969,31.138z"
         id="path3413" /><path
         fill-rule="evenodd"
         clip-rule="evenodd"
         fill="#EF3E33"
         d="M19.401,39.881c0.107,0,0.207,0.108,0.207,0.256    c0,0.098-0.1,0.206-0.207,0.206c-0.127,0-0.235-0.108-0.235-0.206C19.166,39.989,19.274,39.881,19.401,39.881 M17.672,43.36    c0.098-0.236,0.344-0.973,0.491-1.209c-0.147-0.236-0.394-0.491-0.599-0.491c0.107-0.236,0.521-0.56,0.451-0.767    c-0.107-0.206-0.284-0.167-0.697-0.412c0.147-0.285,0.451-0.452,0.669-0.492c0.234-0.029,0.234-0.383,0.618-0.589    c0.412-0.216,0.875-0.216,1.355-0.246c0.659,0.079,2.477,0.55,1.985,2.761c1.081,2.191,4.902-0.747,6.22-0.747    c-0.236,0.492-0.59,0.983-0.825,1.474c0.343,0.236,0.825,0,1.218,0c-0.393,1.209-1.109,1.7-1.71,2.191    c0.601,1.956,2.86,1.18,4.874,0.973c-0.235,0.649-1.081,0.727-1.464,1.219c0.697,0.727,1.464,1.699,1.955,2.672    c-0.904-0.589-2.79-1.208-3.409-1.464c-1.229-0.481-3.685-0.481-4.913,0c0.245,0.491,0.737,0.747,1.12,0.983    c-0.629,1.208-1.847,0.481-2.574,0.235c-0.639,0.492-1.778,0.531-2.084,0.246c0,0,0-0.304,0.364-0.56    c0.255-0.334-0.727-0.413-1.002-0.904c0-0.442,0.491,0,0.767-0.481C19.863,46.533,17.318,46.298,17.672,43.36z"
         id="path3415" /><path
         fill-rule="evenodd"
         clip-rule="evenodd"
         fill="#FFFFFF"
         d="M7.354,10.482l-0.657,0.767l1.277-0.183L7.354,10.482     M9.361,9.606l0.803,1.46h-1.57L9.361,9.606z M11.406,10.482l0.657,0.767l-1.278-0.183L11.406,10.482z M12.903,8.584    c-0.073,0-0.256-0.073,0-0.147c0.146,0,0.511,0,0.913,0.512c0.182-0.073,0.584-0.731,1.021-0.512c0,0.037-1.424,3.177-1.57,3.433    c-0.62-0.329-4.271-0.548-3.906-0.548c0.292,0-3.322,0.11-3.87,0.548c-0.184-0.329-1.607-3.505-1.607-3.505    c0.438-0.183,0.913,0.438,1.06,0.511c0.364-0.511,0.729-0.511,0.803-0.511c0.366,0.072,0.146,0.146,0.11,0.219    c-1.753,1.424,0.803,3.03,1.351,1.424c2.264,0.255,1.643-1.571,1.095-1.826c-0.438-0.109-0.146-0.183,0-0.183    C8.485,7.89,8.777,7.89,8.777,8.073c0-0.986,0.072-1.645,0.584-1.937c0.548,0.365,0.621,0.95,0.548,1.937    c0.073-0.183,0.328-0.074,0.548-0.074c0.073,0.074,0.438,0.074,0.073,0.219c-0.621,0.219-1.169,2.155,1.058,1.79    C12.1,11.614,14.801,9.825,12.903,8.584z"
         id="path3417" /><path
         fill-rule="evenodd"
         clip-rule="evenodd"
         fill="#FFFFFF"
         d="M6.663,12.41c0.22,0,0.438,0.219,0.438,0.401    c0,0.219-0.219,0.438-0.438,0.438c-0.182,0-0.401-0.219-0.401-0.438C6.262,12.629,6.481,12.41,6.663,12.41 M7.979,12.118    c0.219,0,0.438,0.219,0.438,0.401c0,0.219-0.219,0.438-0.438,0.438c-0.184,0-0.402-0.219-0.402-0.438    C7.576,12.337,7.795,12.118,7.979,12.118z M9.402,12.008c0.219,0,0.438,0.219,0.438,0.402c0,0.219-0.219,0.438-0.438,0.438    C9.219,12.848,9,12.629,9,12.41C9,12.227,9.219,12.008,9.402,12.008z M10.826,12.118c0.219,0,0.438,0.219,0.438,0.401    c0,0.219-0.219,0.438-0.438,0.438c-0.184,0-0.402-0.219-0.402-0.438C10.424,12.337,10.643,12.118,10.826,12.118z M12.177,12.41    c0.22,0,0.438,0.219,0.438,0.401c0,0.219-0.219,0.438-0.438,0.438c-0.183,0-0.401-0.219-0.401-0.438    C11.775,12.629,11.994,12.41,12.177,12.41z M6.444,13.651c-0.255-0.438-0.547-1.205-0.693-1.388    c0.62-0.474,2.921-0.547,3.76-0.547c1.242,0,2.958,0.182,3.506,0.547c0,0-0.256,0.913-0.475,1.461    c-0.986-0.365-2.3-0.511-3.177-0.511C8.38,13.213,7.211,13.359,6.444,13.651z"
         id="path3419" /><path
         fill-rule="evenodd"
         clip-rule="evenodd"
         fill="#FFFFFF"
         d="M9.358,13.506c1.606,0,3.095,0.298,3.095,0.476    c0,0.179-1.31,0.298-2.977,0.298c-1.606,0-2.975-0.119-2.975-0.298C6.502,13.804,7.751,13.506,9.358,13.506"
         id="path3421" /></g></g><rect
     x="-331"
     y="-189.75"
     fill="none"
     width="612"
     height="792"
     id="rect3425" /><g
     transform="matrix(1.3169966,0,0,1.3450241,-198.4657,-131.15282)"
     style="font-style:italic;font-variant:normal;font-weight:normal;font-stretch:normal;font-size:50px;line-height:125%;font-family:'Brush Script MT';-inkscape-font-specification:'Brush Script MT Italic';letter-spacing:0px;word-spacing:0px;fill:#ef3e33;fill-opacity:1;stroke:none;stroke-width:1px;stroke-linecap:butt;stroke-linejoin:miter;stroke-opacity:1"
     id="flowRoot3505"><path
       inkscape:connector-curvature="0"
       d="m 239.19238,127.18206 0,1.68457 q -2.31933,2.17285 -3.95508,3.51562 -1.61132,1.31836 -3.22265,2.39258 -1.61133,1.04981 -2.68555,1.48926 -1.0498,0.46387 -1.80664,0.46387 -1.80664,0 -2.9541,-1.34278 -1.14746,-1.34277 -1.14746,-3.46679 0,-2.44141 0.97656,-4.83399 1.00098,-2.39258 2.83203,-4.93164 1.83106,-2.56348 4.58985,-5.7373 2.05078,-2.34375 2.05078,-2.63672 0,-0.1709 -0.12207,-0.29297 -0.12207,-0.12207 -0.26856,-0.12207 -0.46387,0 -2.85644,2.05078 -2.39258,2.05078 -6.15235,6.03027 -3.73535,3.97949 -8.08105,9.47266 -0.24414,0.29297 -1.5625,2.00195 -1.29395,1.68457 -1.83106,2.19727 -0.53711,0.51269 -0.92773,0.51269 -0.68359,0 -1.19629,-1.36718 -0.48828,-1.39161 -0.48828,-2.95411 0,-0.95214 0.61035,-2.05078 0.63477,-1.09863 2.70996,-3.93066 2.09961,-2.85645 3.4668,-4.80957 1.36719,-1.95313 3.00293,-4.73633 1.14746,-1.92871 1.68457,-3.07617 0.56152,-1.14746 0.56152,-2.02637 0,-0.75683 -0.43945,-0.75683 -0.92774,0 -3.49121,2.49023 -2.56348,2.46582 -6.34766,7.34863 -3.75976,4.88281 -7.86133,11.30371 -1.34277,2.19727 -1.90429,2.9541 -0.56153,0.75684 -1.24512,0.75684 -0.85449,0 -1.61133,-1.80664 -0.73242,-1.83105 -0.73242,-2.9541 0,-0.36621 0.29297,-0.80567 3.22265,-4.29687 5.29785,-7.2998 2.07519,-3.00293 3.68652,-5.68848 1.61133,-2.70996 2.34375,-4.44336 0.73242,-1.75781 0.73242,-2.75879 0,-1.0498 -0.95214,-1.0498 -0.78125,0 -2.66114,1.00098 -1.87988,1.00097 -4.76074,2.73437 -2.85644,1.7334 -4.58984,2.66113 -1.7334,0.90332 -2.58789,0.90332 -0.80567,0 -0.80567,-0.90332 0,-0.51269 0.3418,-2.34375 0.3418,-1.85546 0.70801,-2.6123 0.51269,-0.97656 2.6123,-2.58789 2.12403,-1.61133 2.34375,-1.61133 0.19531,0 0.19531,0.1709 0,0.0977 -0.19531,0.29297 -1.00097,0.80566 -1.48926,1.31836 -0.48828,0.51269 -0.61035,1.12304 4.46778,-2.68554 7.9834,-4.07714 3.54004,-1.41602 4.90723,-1.41602 0.68359,0 1.29394,0.92773 0.61035,0.90333 1.02539,2.12403 0.43946,1.19629 0.43946,1.53808 0,1.24512 -0.63477,2.95411 -0.63476,1.68457 -1.7334,3.93066 -1.07422,2.24609 -2.68554,5.61523 1.26953,-1.63574 2.41699,-3.02734 1.14746,-1.3916 2.27051,-2.70996 1.14746,-1.31836 2.31933,-2.66113 1.58692,-1.83106 3.56446,-3.49121 1.97753,-1.68457 3.68652,-2.73438 1.7334,-1.07422 2.34375,-1.07422 0.85449,0 1.51367,0.95215 0.68359,0.92773 0.68359,2.00195 0,0.70801 -0.92773,2.70996 -0.92773,2.00196 -2.70996,5.12696 -1.78223,3.125 -4.71192,8.05664 2.78321,-2.9541 5.78614,-6.0791 3.00293,-3.125 4.46777,-4.56543 1.46484,-1.44043 2.44141,-2.19727 1.34277,-1.02539 2.68554,-2.19726 1.36719,-1.19629 2.14844,-1.87989 0.78125,-0.68359 1.3916,-1.0498 0.61035,-0.36621 1.12305,-0.36621 0.63477,0 1.58691,1.46484 0.97657,1.46484 0.97657,1.87988 0,0.5127 -0.58594,1.22071 -0.56152,0.708 -2.36816,2.63672 -3.32032,3.56445 -5.76172,7.20214 -2.44141,3.61329 -3.71094,6.61622 -1.24512,2.97851 -1.24512,4.71191 0,1.07422 0.39063,1.5625 0.41504,0.48828 1.26953,0.48828 0.78125,0 1.44043,-0.29297 0.68359,-0.29297 1.48926,-0.83008 0.83007,-0.53711 1.5625,-1.02539 1.02539,-0.61035 2.00195,-1.29394 1.00098,-0.70801 1.53808,-1.09864 0.56153,-0.41503 0.83008,-0.58593 z"
       style="font-style:italic;font-variant:normal;font-weight:normal;font-stretch:normal;font-size:50px;font-family:'Brush Script MT';-inkscape-font-specification:'Brush Script MT Italic'"
       id="path3514" /><path
       inkscape:connector-curvature="0"
       d="m 253.76758,127.32854 0,1.63574 q -2.61231,2.56348 -4.27246,3.9795 -1.63575,1.41601 -3.07617,2.19726 -1.41602,0.78125 -2.78321,0.78125 -1.34277,0 -2.46582,-1.0498 -1.12305,-1.07422 -1.75781,-2.78321 -0.63477,-1.73339 -0.63477,-3.66211 0,-1.66015 0.73243,-2.9541 0.73242,-1.29394 2.83203,-3.34472 2.49023,-2.44141 4.61425,-3.75977 2.14844,-1.34277 3.36915,-1.34277 0.8789,0 1.48925,0.61035 0.61035,0.61035 0.61035,1.53808 0,0.78125 -0.80566,2.22168 -0.80566,1.44043 -1.80664,2.51465 -1.00098,1.04981 -1.58691,1.04981 -0.63477,0 -0.63477,-0.6836 0.0244,-0.19531 0.0244,-0.36621 0.0244,-0.1709 0.0244,-0.34179 0,-0.29297 -0.21973,-0.31739 -0.19531,-0.0488 -0.48828,0.1709 -2.44141,1.70899 -3.34473,2.41699 -0.90332,0.6836 -1.44043,1.39161 -0.51269,0.708 -0.51269,1.48925 0,1.44043 0.92773,2.34375 0.92774,0.90332 2.417,0.90332 1.53808,0 3.68652,-1.17187 2.17285,-1.19629 5.10254,-3.4668 z"
       style="font-style:italic;font-variant:normal;font-weight:normal;font-stretch:normal;font-size:50px;font-family:'Brush Script MT';-inkscape-font-specification:'Brush Script MT Italic'"
       id="path3516" /><path
       inkscape:connector-curvature="0"
       d="m 273.27441,130.11174 0.80567,0.61036 q -0.31738,0.68359 -0.61035,1.19629 -0.29297,0.51269 -0.70801,1.24511 -0.41504,0.73242 -0.63477,1.09864 -1.83105,3.19824 -3.44238,3.19824 -0.68359,0 -1.17187,-0.53711 -0.48829,-0.53711 -0.48829,-1.46485 0,-1.31835 0.92774,-3.61328 0.95215,-2.29492 2.90527,-5.63965 1.97754,-3.36914 4.95606,-7.61718 2.97851,-4.24805 6.71386,-8.95996 -2.14843,-0.31739 -5.10254,-0.31739 -3.39355,0 -7.56835,0.75684 -4.1504,0.75684 -7.25098,1.75781 -3.07617,0.97656 -3.07617,1.44043 0,0.1709 0.12207,0.24414 0.12207,0.0488 0.39062,0.0977 0.29297,0.0244 0.73242,0.0732 2.85645,0.39063 2.85645,0.87891 0,0.24414 -1.24512,0.24414 -1.24512,-0.0244 -3.00293,-0.0244 -1.3916,0 -2.02636,-0.0976 -0.61036,-0.12207 -0.83008,-0.41504 -0.19532,-0.31738 -0.19532,-0.95215 0,-0.41504 0.24415,-1.80664 0.46386,-2.58789 1.41601,-4.15039 0.97656,-1.5625 2.9541,-2.53906 2.00196,-1.00098 5.49317,-1.58692 5.85937,-1.00097 9.69238,-1.00097 2.83203,0 4.46777,0.24414 1.63574,0.21972 2.39258,0.65918 0.78125,0.43945 0.97656,0.8789 0.21973,0.41504 0.56153,1.46485 l 0.75683,2.24609 q 0.0732,0.21973 0.12207,0.36621 0.0488,0.12207 0.0732,0.26856 0.0488,0.14648 0.0488,0.26855 0,0.95215 -0.43945,1.70898 -0.41504,0.75684 -1.5625,2.27051 -1.12305,1.51367 -1.66016,2.36817 -6.29882,10.22949 -8.59375,15.13671 z"
       style="font-style:italic;font-variant:normal;font-weight:normal;font-stretch:normal;font-size:50px;font-family:'Brush Script MT';-inkscape-font-specification:'Brush Script MT Italic'"
       id="path3518" /><path
       inkscape:connector-curvature="0"
       d="m 280.96484,129.1596 0,-1.58692 q 1.31836,-1.5625 2.00196,-2.66113 -0.78125,-0.26856 -1.14746,-0.65918 -0.3418,-0.39063 -0.3418,-1.17188 0,-0.8789 0.73242,-2.22167 0.73242,-1.34278 1.80664,-2.51465 1.07422,-1.17188 1.95313,-1.51368 0.34179,-0.17089 0.65918,-0.17089 0.48828,0 0.48828,0.46386 0,0.41504 -0.75684,1.68457 5.0293,-0.78125 6.34766,-0.78125 0.51269,0 0.70801,0.0977 0.41503,0.21973 0.68359,1.02539 0.26855,0.80566 0.26855,1.61133 0,0.51269 -0.46386,1.12305 -0.43946,0.58593 -1.53809,1.73339 -1.29394,1.39161 -2.17285,3.02735 -0.87891,1.63574 -0.87891,2.46582 0,1.14746 1.41602,1.14746 1.48926,0 5.17578,-3.02734 l 0,1.63574 q -2.02637,2.12402 -3.34473,3.34472 -1.31836,1.22071 -2.4414,1.95313 -1.12305,0.70801 -2.00196,0.70801 -1.02539,0 -1.70898,-0.92774 -0.68359,-0.95215 -0.68359,-2.73437 0,-1.04981 0.53711,-2.39258 0.5371,-1.34277 1.5625,-2.90527 1.0498,-1.58692 2.34375,-3.14942 -0.6836,0.14649 -1.53809,0.31738 -0.85449,0.14649 -1.80664,0.31739 -0.95215,0.1709 -1.46485,0.26855 -1.51367,3.02735 -4.39453,5.49317 z"
       style="font-style:italic;font-variant:normal;font-weight:normal;font-stretch:normal;font-size:50px;font-family:'Brush Script MT';-inkscape-font-specification:'Brush Script MT Italic'"
       id="path3520" /><path
       inkscape:connector-curvature="0"
       d="m 298.7627,122.9096 q 3.71093,-3.36914 7.20214,-5.00489 3.49121,-1.63574 5.39551,-1.63574 0.5127,0 0.95215,0.43945 0.43945,0.41504 0.68359,0.97657 0.26856,0.56152 0.26856,0.83008 0,0.43945 -0.3418,0.65917 -0.3418,0.19532 -1.19629,0.48829 0.1709,0.39062 0.43946,1.00097 0.26855,0.61035 0.41503,1.00098 0.14649,0.36621 0.14649,0.65918 0,0.58594 -1.19629,2.19726 -1.17188,1.58692 -1.66016,2.34375 -0.46386,0.75684 -0.46386,1.85547 0,1.80664 1.66015,1.80664 1.70899,0 5.34668,-3.19824 l 0,1.48926 q -6.17676,6.86035 -8.83789,6.86035 -0.95215,0 -1.36719,-0.63476 -0.39062,-0.61036 -0.39062,-1.83106 0,-1.92871 1.3916,-5.59082 -3.56445,3.95508 -5.29785,5.63965 -1.7334,1.66016 -2.85645,1.66016 -0.53711,0 -1.34277,-0.92774 -0.80566,-0.92773 -1.44043,-2.39258 -0.61035,-1.48926 -0.61035,-3.07617 0,-1.14746 0.21973,-1.9043 0.21972,-0.78125 0.85449,-1.58691 0.63476,-0.80566 2.02637,-2.12402 z m 11.69433,-2.68555 q -6.34766,2.90527 -9.05762,4.93164 -2.68554,2.02637 -2.68554,4.1748 0,0.78125 0.26855,1.29395 0.26856,0.48828 0.73242,0.48828 0.26856,0 0.95215,-0.3418 2.56348,-1.51367 4.6875,-3.93066 2.12403,-2.44141 5.10254,-6.61621 z"
       style="font-style:italic;font-variant:normal;font-weight:normal;font-stretch:normal;font-size:50px;font-family:'Brush Script MT';-inkscape-font-specification:'Brush Script MT Italic'"
       id="path3522" /><path
       inkscape:connector-curvature="0"
       d="m 332.67383,122.86077 q -4.29688,4.78515 -4.29688,6.66504 0,1.0498 0.8545,1.0498 0.708,0 1.83105,-0.73242 1.14746,-0.75684 3.56445,-2.66113 l 0,1.68457 q -3.46679,3.41797 -5.32226,4.93164 -1.85547,1.51367 -3.02735,1.51367 -2.00195,0 -2.00195,-2.63672 0,-0.78125 0.24414,-1.53808 0.24414,-0.75684 0.65918,-1.5625 0.43945,-0.83008 1.31836,-2.34375 0.87891,-1.53809 2.02637,-3.4668 -1.3916,0.70801 -3.49121,2.80762 -1.36719,1.31836 -2.31934,2.51464 -0.95215,1.17188 -2.05078,2.63672 -1.07422,1.44043 -1.58691,1.95313 -0.48829,0.48828 -1.00098,0.48828 -0.78125,0 -1.44043,-1.63574 -0.65918,-1.63575 -0.65918,-3.8086 0,-1.34277 0.29297,-2.09961 0.31738,-0.75683 1.2207,-2.14843 1.68457,-2.58789 2.90527,-3.78418 1.22071,-1.22071 2.34375,-1.22071 0.78125,0 1.24512,0.26856 0.48828,0.26855 0.48828,0.83008 0,0.24414 -0.14648,0.51269 -0.14649,0.26856 -0.3418,0.48828 -0.1709,0.21973 -0.75683,0.8545 -3.85743,4.27246 -3.85743,5.54199 0,0.70801 0.46387,0.70801 0.29297,0 1.12305,-0.92774 0.85449,-0.95215 2.17285,-2.46582 1.34277,-1.53809 3.14941,-3.19824 1.83106,-1.66016 4.15039,-3.19824 1.29395,-0.90332 2.14844,-0.90332 0.39063,0 0.75684,1.07421 0.39062,1.07422 0.39062,2.17286 0,0.53711 -1.0498,1.63574 z"
       style="font-style:italic;font-variant:normal;font-weight:normal;font-stretch:normal;font-size:50px;font-family:'Brush Script MT';-inkscape-font-specification:'Brush Script MT Italic'"
       id="path3524" /></g></svg>